<?xml version="1.0" encoding="utf-8"?>
<svg version="1.1" xmlns="http://www.w3.org/2000/svg" xmlns:xlink="http://www.w3.org/1999/xlink" x="0px" y="0px"
	 viewBox="0 0 500 500" style="enable-background:new 0 0 500 500;" xml:space="preserve">
<g id="BACKGROUND">
	<radialGradient id="SVGID_1_" cx="250" cy="250" r="250" gradientUnits="userSpaceOnUse">
		<stop  offset="0" style="stop-color:#FFFFFF"/>
		<stop  offset="1" style="stop-color:#E6E6E6"/>
	</radialGradient>
	<rect style="fill:url(#SVGID_1_);" width="500" height="500"/>
</g>
<g id="OBJECTS">
	<g>
		
			<linearGradient id="SVGID_00000160908546826278740620000006826644724051600059_" gradientUnits="userSpaceOnUse" x1="158.1958" y1="187.4552" x2="269.7218" y2="264.2488">
			<stop  offset="0" style="stop-color:#89E2E8"/>
			<stop  offset="0.5052" style="stop-color:#5D9CB4"/>
			<stop  offset="1" style="stop-color:#355A8F"/>
		</linearGradient>
		<path style="fill:url(#SVGID_00000160908546826278740620000006826644724051600059_);" d="M260.074,197.956
			c-3.682-1.093-7.452-1.978-11.302-2.624c-5.216-0.878-10.573-1.337-16.033-1.337c-7.493,0-14.781,0.861-21.775,2.486
			c-8.529,1.977-16.627,5.097-24.114,9.18c-6.281,3.432-12.136,7.544-17.471,12.238c-0.81,0.714-1.608,1.444-2.395,2.192
			c-0.074,0.062-0.153,0.136-0.227,0.21c-1.682,1.591-3.307,3.245-4.87,4.955c-0.006,0.011-0.011,0.017-0.017,0.028
			c-1.993,2.701-4.123,5.301-6.383,7.776c-0.006,0.006-0.011,0.017-0.023,0.023c-0.617,0.68-1.246,1.342-1.891,2.005v0.006
			c0.051,0.142,0.102,0.283,0.153,0.425v0.006c0.98,2.645,2.073,5.227,3.273,7.753c0.232,0.493,0.47,0.974,0.714,1.456
			c0,0.006,0,0.006,0,0.006c0.946,1.212,1.965,2.362,3.052,3.432c3.324,3.307,7.294,5.963,11.7,7.77
			c4.219,1.733,8.835,2.69,13.677,2.69c10.5,0,27.116-10.998,27.393-10.658c5.448-2.826,11.638-4.423,18.202-4.423
			c14.015,0,26.321,7.293,33.351,18.285C272.526,240.621,272.986,215.636,260.074,197.956z"/>
		
			<linearGradient id="SVGID_00000165201390649344031690000013691907989506089113_" gradientUnits="userSpaceOnUse" x1="207.0763" y1="105.7186" x2="299.5279" y2="281.336">
			<stop  offset="0" style="stop-color:#89E2E8"/>
			<stop  offset="0.5052" style="stop-color:#5D9CB4"/>
			<stop  offset="1" style="stop-color:#355A8F"/>
		</linearGradient>
		<path style="fill:url(#SVGID_00000165201390649344031690000013691907989506089113_);" d="M268.984,201.08
			c-2.901-1.184-5.876-2.223-8.91-3.124c12.912,17.681,12.452,42.666,5.014,63.878c3.433,5.367,5.615,11.612,6.111,18.328
			c0.074,0.974,0.108,1.96,0.108,2.956c0,3.568-0.47,7.028-1.359,10.318c20.156-13.62,34.852-34.693,40.135-59.266
			c0.057-0.255,0.108-0.51,0.164-0.765C299.832,219.14,285.566,207.853,268.984,201.08z"/>
		
			<linearGradient id="SVGID_00000176029852864031965950000003032391429483789216_" gradientUnits="userSpaceOnUse" x1="227.5389" y1="125.4298" x2="306.264" y2="204.5585">
			<stop  offset="0" style="stop-color:#78C6CB"/>
			<stop  offset="0.5052" style="stop-color:#5D9CB4"/>
			<stop  offset="1" style="stop-color:#355A8F"/>
		</linearGradient>
		<path style="fill:url(#SVGID_00000176029852864031965950000003032391429483789216_);" d="M319.67,182.561
			c-0.096-0.079-0.187-0.164-0.283-0.249h-0.006c-1.439-1.252-2.911-2.458-4.417-3.619c-4.18-3.222-8.631-6.105-13.314-8.608v-0.006
			c-5.448-2.917-11.213-5.324-17.233-7.147c-1.523-0.47-3.064-0.895-4.621-1.286c-7.47-1.869-15.291-2.86-23.338-2.86h-0.464
			c-4.193,0.02-8.321,0.312-12.37,0.854c20.377,10.784,39.212,29.748,44.884,52.24c8.342,5.974,15.694,13.243,21.74,21.525
			c0.028,0.045,0.062,0.085,0.091,0.125c5.103,7.011,9.276,14.736,12.34,22.998c3.862-10.398,5.975-21.645,5.975-33.385
			C328.652,208.64,325.43,194.884,319.67,182.561z"/>
		
			<linearGradient id="SVGID_00000129907190699115530820000008654406002952925101_" gradientUnits="userSpaceOnUse" x1="169.6371" y1="170.4353" x2="256.2051" y2="227.2702">
			<stop  offset="0" style="stop-color:#78C6CB"/>
			<stop  offset="0.5052" style="stop-color:#5D9CB4"/>
			<stop  offset="1" style="stop-color:#355A8F"/>
		</linearGradient>
		<path style="fill:url(#SVGID_00000129907190699115530820000008654406002952925101_);" d="M243.622,159.64
			c-21.243,2.842-40.289,12.638-54.768,27.026c-3.46,3.432-6.649,7.124-9.548,11.049c-2.243,2.161-7.793,12.165-11.848,19.085
			c-0.198,0.34-0.396,0.68-0.6,1.014c0,0.006,0,0.006,0,0.006c-1.546,2.56-3.2,5.04-4.972,7.436c1.563-1.71,3.188-3.364,4.87-4.955
			c0.074-0.074,0.153-0.147,0.227-0.21c0.787-0.748,1.586-1.478,2.395-2.192c5.335-4.695,11.191-8.806,17.471-12.238
			c7.487-4.083,15.585-7.204,24.114-9.18c6.994-1.625,14.283-2.486,21.775-2.486c5.459,0,10.817,0.459,16.033,1.337
			c7.022,1.178,13.79,3.126,20.212,5.748c6.955,2.841,13.495,6.485,19.522,10.801C282.835,189.388,263.999,170.425,243.622,159.64z"
			/>
		
			<linearGradient id="SVGID_00000016774098285529772750000004915475071951960717_" gradientUnits="userSpaceOnUse" x1="137.9784" y1="162.8206" x2="272.416" y2="187.0437">
			<stop  offset="0" style="stop-color:#78C6CB"/>
			<stop  offset="0.5052" style="stop-color:#5D9CB4"/>
			<stop  offset="1" style="stop-color:#355A8F"/>
		</linearGradient>
		<path style="fill:url(#SVGID_00000016774098285529772750000004915475071951960717_);" d="M204.604,146.769h-0.006v0.006
			c-3.874,2.939-7.515,6.179-10.891,9.667c0,0.006,0,0.006-0.006,0.006c-5.057,5.216-9.52,11.004-13.297,17.262c0,0,0,0,0,0.006
			c-3.764,8.302-3.31,23.795-6.766,32.468c2.9-3.925,11.755-16.084,15.215-19.516c17.239-17.131,40.951-27.756,67.138-27.88h0.464
			c1.768,0,3.523,0.056,5.267,0.151c-12.759-10.492-29.629-16.366-46.586-19.13C211.471,141.902,207.949,144.223,204.604,146.769z"
			/>
		
			<linearGradient id="SVGID_00000170997054186787797250000006026155711075384710_" gradientUnits="userSpaceOnUse" x1="165.7276" y1="90.4226" x2="323.5817" y2="170.7627">
			<stop  offset="0" style="stop-color:#78C6CB"/>
			<stop  offset="0.5052" style="stop-color:#5D9CB4"/>
			<stop  offset="1" style="stop-color:#355A8F"/>
		</linearGradient>
		<path style="fill:url(#SVGID_00000170997054186787797250000006026155711075384710_);" d="M332.046,164.801
			c-4.64-10.951-12.813-19.996-23.231-25.734c-6.122-3.371-12.651-6.092-19.494-8.07c-4.944-1.433-10.058-2.475-15.296-3.098
			c-3.738-0.442-7.543-0.668-11.4-0.668c-1.654,0-3.296,0.04-4.933,0.125h-0.006c-0.974,0.051-1.948,0.113-2.917,0.192
			c-2.39,0.193-4.746,0.476-7.079,0.844h-0.006c-1.467,0.227-2.922,0.487-4.361,0.782c-6.592,1.348-12.935,3.37-18.955,5.992
			c-3.172,1.382-6.249,2.938-9.231,4.642c16.958,2.764,33.827,8.638,46.586,19.13c6.197,0.335,12.242,1.251,18.071,2.709
			c1.557,0.391,3.098,0.816,4.621,1.286c6.02,1.824,11.785,4.23,17.233,7.147v0.006c4.684,2.503,9.135,5.386,13.314,8.608
			c1.506,1.161,2.979,2.367,4.417,3.619h0.006c0.062,0.017,0.125,0.034,0.187,0.051c5.963,1.478,12.153,2.401,18.502,2.701
			C336.809,178.01,334.768,171.226,332.046,164.801z"/>
		
			<linearGradient id="SVGID_00000014607064589144911760000005513761002040857999_" gradientUnits="userSpaceOnUse" x1="150.2596" y1="52.8949" x2="288.9365" y2="160.6876">
			<stop  offset="0" style="stop-color:#78C6CB"/>
			<stop  offset="0.5052" style="stop-color:#5D9CB4"/>
			<stop  offset="1" style="stop-color:#355A8F"/>
		</linearGradient>
		<path style="fill:url(#SVGID_00000014607064589144911760000005513761002040857999_);" d="M274.024,127.899
			c-3.738-0.442-7.543-0.668-11.4-0.668c-1.654,0-3.296,0.04-4.933,0.125h-0.006c-0.974,0.051-1.948,0.113-2.917,0.192
			c-2.39,0.193-4.746,0.476-7.079,0.844h-0.006c-1.467,0.227-2.922,0.487-4.361,0.782c-6.592,1.348-12.935,3.37-18.955,5.992
			c1.858-2.48,3.523-5.114,4.972-7.878c1.331-2.526,2.48-5.159,3.432-7.883c0.04-0.096,0.074-0.198,0.108-0.295
			c1.376-3.993,2.333-8.183,2.82-12.51c0.119-0.985,0.204-1.982,0.26-2.985c1.88,0.295,3.738,0.64,5.578,1.042
			c0.011,0.006,0.023,0.006,0.028,0.006c1.693,0.481,3.353,1.031,4.978,1.654c0.651,0.243,1.291,0.504,1.931,0.77
			C258.847,111.47,267.698,118.742,274.024,127.899z"/>
		
			<linearGradient id="SVGID_00000026128874184489826900000009809184542015515266_" gradientUnits="userSpaceOnUse" x1="194.2869" y1="122.8872" x2="237.081" y2="137.9593">
			<stop  offset="0" style="stop-color:#78C6CB"/>
			<stop  offset="0.5052" style="stop-color:#5D9CB4"/>
			<stop  offset="1" style="stop-color:#355A8F"/>
		</linearGradient>
		<path style="fill:url(#SVGID_00000026128874184489826900000009809184542015515266_);" d="M232.881,119.11
			c-0.034,0.096-0.068,0.198-0.108,0.295c-0.951,2.724-2.101,5.357-3.432,7.883c-1.45,2.764-3.115,5.397-4.972,7.878
			c-7.073,3.081-13.699,6.988-19.765,11.604c1.331-4.91,2.039-10.081,2.039-15.415c0-0.176,0-0.351-0.006-0.527
			c-0.034-4.191-0.51-8.268-1.376-12.204c-0.289-1.319-0.623-2.622-1.002-3.902c-0.725-2.464-1.608-4.859-2.639-7.175
			c0.028-0.011,0.057-0.023,0.085-0.034h0.006c4.972,0.34,9.775,1.297,14.334,2.803C222.16,112.331,227.835,115.326,232.881,119.11z
			"/>
		
			<linearGradient id="SVGID_00000025442100535559617330000000037752379093586061_" gradientUnits="userSpaceOnUse" x1="145.1849" y1="316.4935" x2="246.5182" y2="249.8801">
			<stop  offset="0" style="stop-color:#78C6CB"/>
			<stop  offset="0.5052" style="stop-color:#5D9CB4"/>
			<stop  offset="1" style="stop-color:#355A8F"/>
		</linearGradient>
		<path style="fill:url(#SVGID_00000025442100535559617330000000037752379093586061_);" d="M242.089,244.928
			c-3.301-0.893-6.769-1.38-10.352-1.38c-6.564,0-12.754,1.597-18.202,4.423c5.641,6.841,9.022,15.597,9.022,25.151
			c0,7.069-1.861,13.701-5.111,19.445c1.202-0.759,2.39-1.554,3.559-2.398C235.514,279.5,243.265,262.401,242.089,244.928z"/>
		
			<linearGradient id="SVGID_00000091001353802233655350000008681247628976951941_" gradientUnits="userSpaceOnUse" x1="210.8826" y1="283.2224" x2="255.6953" y2="263.4402">
			<stop  offset="0" style="stop-color:#78C6CB"/>
			<stop  offset="0.5052" style="stop-color:#5D9CB4"/>
			<stop  offset="1" style="stop-color:#355A8F"/>
		</linearGradient>
		<path style="fill:url(#SVGID_00000091001353802233655350000008681247628976951941_);" d="M242.089,244.928
			c1.177,17.473-6.575,34.572-21.084,45.24c-1.169,0.845-2.358,1.639-3.559,2.398c-0.309,0.546-0.626,1.087-0.96,1.617
			c1.518,0.074,3.047,0.108,4.581,0.108c18.377,0,35.543-5.171,50.131-14.13C269.946,263.206,258.003,249.232,242.089,244.928z"/>
	</g>
</g>
</svg>
